inDegrees=yes
name=ik_S44_A13_T01
DataType=double
version=3
OpenSimVersion=4.3-2021-08-27-4bc7ad9
endheader
time	pelvis_tilt	pelvis_list	pelvis_rotation	pelvis_tx	pelvis_ty	pelvis_tz	hip_flexion_r	hip_adduction_r	hip_rotation_r	knee_angle_r	knee_angle_r_beta	ankle_angle_r	subtalar_angle_r	mtp_angle_r	hip_flexion_l	hip_adduction_l	hip_rotation_l	knee_angle_l	knee_angle_l_beta	ankle_angle_l	subtalar_angle_l	mtp_angle_l	lumbar_extension	lumbar_bending	lumbar_rotation	arm_flex_r	arm_add_r	arm_rot_r	elbow_flex_r	pro_sup_r	wrist_flex_r	wrist_dev_r	arm_flex_l	arm_add_l	arm_rot_l	elbow_flex_l	pro_sup_l	wrist_flex_l	wrist_dev_l
12.39999999999982	3.77908337346555	2.864861741722552	21.51114294715582	0	0.9399999999999999	0	25.89752158632682	-8.848819505488766	-7.801584871257221	29.61341851879478	0.5168516559240312	0	0	0	25.89752158632682	-8.848819505488766	-7.801584871257221	29.61341851879478	0.5168516559240312	0	0	0	4.947539603496788	1.701551298706998	9.080521758639801	76.14367752569567	-7.348514188173656	30.60907169267862	40.03138721277866	139.7468266263808	0	0	90.57158439831214	-1.381700920186602	28.67838504874172	-4.355880196179053	120.1861635377154	0	0
12.41999999999982	3.785153934919191	2.864004246330052	21.49653758054317	0	0.9399999999999999	0	25.90381969107286	-8.85005404313978	-7.803102041145503	29.61962744012365	0.5169600220442172	0	0	0	25.90381969107286	-8.85005404313978	-7.803102041145503	29.61962744012365	0.5169600220442172	0	0	0	4.950738101116428	1.70362177804118	9.127198132925479	75.82019588207608	-7.529399623510019	30.2059653707214	40.15739769967015	139.5425334511747	0	0	90.54288399130468	-1.370719697517433	28.64877322525245	-4.419194017774541	120.0405945161802	0	0
12.43999999999982	3.755016712395135	2.855173408597274	21.48934783179369	0	0.9399999999999999	0	25.90827529181105	-8.850928561870788	-7.804176460735069	29.62401068552349	0.5170365241083673	0	0	0	25.90827529181105	-8.850928561870788	-7.804176460735069	29.62401068552349	0.5170365241083673	0	0	0	4.918837246095564	1.707555868392442	9.135902428475038	75.61948731356387	-7.548385526166414	29.90958016267848	40.10879964189667	139.2908015266667	0	-5.38806921148701e-36	90.47251379664679	-1.32470160109441	28.86336160716541	-4.425107392641899	119.9211376525939	0	-5.38806921148701e-36
12.45999999999982	3.722918112587276	2.851648557702803	21.47670055614726	0	0.9399999999999999	0	25.91623719378613	-8.852490625693832	-7.806095945227448	29.63184488829678	0.5171732567410302	0	0	0	25.91623719378613	-8.852490625693832	-7.806095945227448	29.63184488829678	0.5171732567410302	0	0	0	4.890871604828459	1.708530199101066	9.061101720012232	75.29000268723784	-7.462084719440793	30.4485663232046	40.15239007782693	138.2855556219222	0	0	90.54476870385639	-1.43534494942205	28.87163864751621	-4.552008568088986	120.0430303257421	0	0
12.47999999999982	3.704565816347694	2.849947352047076	21.42735010431994	0	0.9399999999999999	0	25.92688305273891	-8.854581273982204	-7.808664483987418	29.64230224361842	0.5173557720224436	0	0	0	25.92688305273891	-8.854581273982204	-7.808664483987418	29.64230224361842	0.5173557720224436	0	0	0	4.873207171238205	1.714094794701211	9.06136917410139	75.18410275753057	-7.355252329002999	30.70652940643252	40.01974058233351	137.4254070817628	0	0	90.50121533788351	-1.188363907584238	29.54684096926556	-4.890493778956692	119.667799437076	0	0
12.49999999999982	3.70247049303628	2.853527646964777	21.40046207520059	0	0.9399999999999999	0	25.93019603225052	-8.855224558095912	-7.809458350423723	29.64558577713177	0.5174130804933512	0	0	0	25.93019603225052	-8.855224558095912	-7.809458350423723	29.64558577713177	0.5174130804933512	0	0	0	4.873691352679577	1.71577015780981	9.036703470555434	75.06939517436183	-7.206703036954711	30.58887782389482	39.90350630979222	137.2239098738441	0	1.041340402720558e-36	90.55603832517431	-1.184857061198577	29.65670520429589	-4.940043223102062	119.9022687182647	0	1.041340402720558e-36
12.51999999999982	3.683047727311302	2.864675152870701	21.4296917812471	0	0.9399999999999999	0	25.94319562610387	-8.857769489313785	-7.812589585788273	29.65837244260332	0.5176362499061808	0	0	0	25.94319562610387	-8.857769489313785	-7.812589585788273	29.65837244260332	0.5176362499061808	0	0	0	4.860908895287841	1.72905971387379	8.994774582129422	74.98772994008237	-6.999416682058612	30.40588701499389	39.14806200936434	135.8265203721848	0	0	90.5985399009416	-1.206495026289605	29.49658677861006	-4.812918368995438	120.7445960283039	0	0
12.53999999999982	3.675527424886944	2.876507971862658	21.38958451079437	0	0.9399999999999999	0	25.95132802070602	-8.859363072822747	-7.814550019061876	29.66635688941646	0.5177756047920204	0	0	0	25.95132802070602	-8.859363072822747	-7.814550019061876	29.66635688941646	0.5177756047920204	0	0	0	4.85403188297651	1.751197384064856	9.077405967005516	74.96424872992412	-7.028273647733747	30.42233337673218	38.88162762018123	134.8887524326444	0	0	90.20649230669795	-0.6764692257301954	29.9620573484023	-4.831833829938876	120.3962970499763	0	0
12.55999999999982	3.666318572358214	2.884816528450425	21.46668639176269	0	0.9399999999999999	0	25.96143186671215	-8.861299302884515	-7.816952408375847	29.67646449184483	0.5179520157338782	0	0	0	25.96143186671215	-8.861299302884515	-7.816952408375847	29.67646449184483	0.5179520157338782	0	0	0	4.849180816157047	1.76202624102097	9.06876377564166	74.90168060518845	-7.061432929023653	30.35256276916703	39.28838892927018	136.1831195625353	0	0	90.19498478254387	-0.5825084166152722	29.93050363141501	-4.739931798094246	119.9219063959747	0	0
